<svg width="180" height="23" viewBox="0 0 180 23" fill="none" xmlns="http://www.w3.org/2000/svg">
<path d="M9.976 1.872C10.872 1.872 11.696 1.984 12.448 2.208C13.216 2.416 13.992 2.752 14.776 3.216L15.328 2.76C15.712 2.456 16.024 2.248 16.264 2.136C16.52 2.024 16.808 1.968 17.128 1.968C17.512 1.968 17.816 2.056 18.04 2.232C18.264 2.392 18.376 2.632 18.376 2.952C18.376 3.08 18.352 3.216 18.304 3.36L17.296 6.672C17.184 7.056 17.04 7.328 16.864 7.488C16.704 7.648 16.456 7.728 16.12 7.728C15.768 7.728 15.456 7.624 15.184 7.416C14.928 7.192 14.52 6.744 13.96 6.072C13.4 5.432 12.888 4.984 12.424 4.728C11.976 4.456 11.512 4.32 11.032 4.32C10.68 4.32 10.384 4.44 10.144 4.68C9.904 4.904 9.784 5.184 9.784 5.52C9.784 5.904 9.976 6.264 10.36 6.6C10.744 6.92 11.344 7.328 12.16 7.824C12.992 8.32 13.68 8.768 14.224 9.168C14.768 9.568 15.232 10.064 15.616 10.656C16 11.248 16.192 11.928 16.192 12.696C16.192 13.192 16.112 13.688 15.952 14.184C15.568 15.464 14.824 16.44 13.72 17.112C12.616 17.768 11.328 18.096 9.856 18.096C8.752 18.096 7.824 17.968 7.072 17.712C6.32 17.456 5.552 17.024 4.768 16.416L3.904 17.136C3.504 17.472 3.176 17.704 2.92 17.832C2.664 17.944 2.376 18 2.056 18C1.688 18 1.392 17.912 1.168 17.736C0.96 17.56 0.856 17.32 0.856 17.016C0.856 16.856 0.888 16.688 0.952 16.512L2.128 12.936C2.256 12.52 2.432 12.224 2.656 12.048C2.88 11.872 3.168 11.784 3.52 11.784C3.888 11.784 4.216 11.912 4.504 12.168C4.808 12.424 5.2 12.888 5.68 13.56C6.192 14.296 6.664 14.808 7.096 15.096C7.544 15.384 8.072 15.528 8.68 15.528C9.112 15.528 9.44 15.464 9.664 15.336C9.904 15.192 10.072 14.968 10.168 14.664C10.2 14.584 10.216 14.464 10.216 14.304C10.216 13.92 10.032 13.568 9.664 13.248C9.296 12.928 8.728 12.544 7.96 12.096C7.144 11.6 6.48 11.16 5.968 10.776C5.456 10.376 5.008 9.88 4.624 9.288C4.256 8.696 4.072 8 4.072 7.2C4.072 6.64 4.16 6.088 4.336 5.544C4.672 4.44 5.36 3.552 6.4 2.88C7.44 2.208 8.632 1.872 9.976 1.872ZM23.8589 5.304C24.7869 5.304 25.4669 5.48 25.8989 5.832C26.3309 6.184 26.5469 6.664 26.5469 7.272C26.5469 7.64 26.4909 7.992 26.3789 8.328L24.1709 15.504C24.1229 15.696 24.0989 15.864 24.0989 16.008C24.0989 16.216 24.1389 16.384 24.2189 16.512C24.2989 16.624 24.4109 16.736 24.5549 16.848C24.6669 16.96 24.7469 17.056 24.7949 17.136C24.8429 17.2 24.8509 17.288 24.8189 17.4C24.7389 17.608 24.5789 17.76 24.3389 17.856C24.0989 17.952 23.7309 18 23.2349 18H17.7629C17.3469 18 17.0429 17.936 16.8509 17.808C16.6589 17.664 16.5949 17.48 16.6589 17.256C16.7229 17.064 16.8909 16.896 17.1629 16.752C17.4029 16.624 17.6029 16.472 17.7629 16.296C17.9229 16.12 18.0589 15.84 18.1709 15.456L20.2589 8.52C20.3069 8.376 20.3309 8.256 20.3309 8.16C20.3309 7.984 20.2909 7.848 20.2109 7.752C20.1309 7.64 20.0109 7.528 19.8509 7.416C19.6909 7.288 19.5789 7.176 19.5149 7.08C19.4509 6.984 19.4429 6.856 19.4909 6.696C19.5869 6.328 20.0909 6.008 21.0029 5.736C21.9149 5.448 22.8669 5.304 23.8589 5.304ZM25.4669 -1.43051e-06C26.0909 -1.43051e-06 26.6109 0.207999 27.0269 0.623999C27.4429 1.024 27.6509 1.52 27.6509 2.112C27.6509 2.528 27.5389 2.936 27.3149 3.336C27.1069 3.736 26.8029 4.064 26.4029 4.32C26.0189 4.56 25.5869 4.68 25.1069 4.68C24.4989 4.68 23.9869 4.48 23.5709 4.08C23.1709 3.664 22.9629 3.152 22.9469 2.544C22.9469 2.144 23.0509 1.752 23.2589 1.368C23.4669 0.967999 23.7629 0.639999 24.1469 0.383999C24.5309 0.127999 24.9709 -1.43051e-06 25.4669 -1.43051e-06ZM49.1599 14.688C49.1279 14.752 49.1119 14.848 49.1119 14.976C49.1119 15.088 49.1359 15.176 49.1839 15.24C49.2479 15.304 49.3279 15.336 49.4239 15.336C49.6159 15.336 49.7759 15.256 49.9039 15.096C50.0479 14.92 50.1439 14.832 50.1919 14.832C50.2719 14.832 50.3359 14.888 50.3839 15C50.4319 15.096 50.4559 15.216 50.4559 15.36C50.4719 15.824 50.3199 16.28 49.9999 16.728C49.6799 17.16 49.2079 17.52 48.5839 17.808C47.9759 18.08 47.2399 18.216 46.3759 18.216C45.3199 18.216 44.4799 17.976 43.8559 17.496C43.2319 17 42.9119 16.344 42.8959 15.528C42.8959 14.936 43.0399 14.272 43.3279 13.536L44.6479 10.08C44.7279 9.872 44.7679 9.704 44.7679 9.576C44.7679 9.368 44.6959 9.208 44.5519 9.096C44.4239 8.968 44.2639 8.904 44.0719 8.904C43.7999 8.904 43.5199 9.024 43.2319 9.264C42.9439 9.504 42.6879 9.88 42.4639 10.392L41.1439 14.688C41.1119 14.752 41.0959 14.848 41.0959 14.976C41.0959 15.088 41.1199 15.176 41.1679 15.24C41.2319 15.304 41.3119 15.336 41.4079 15.336C41.5999 15.336 41.7599 15.256 41.8879 15.096C42.0319 14.92 42.1279 14.832 42.1759 14.832C42.2559 14.832 42.3199 14.888 42.3679 15C42.4159 15.096 42.4399 15.216 42.4399 15.36C42.4559 15.824 42.3039 16.28 41.9839 16.728C41.6639 17.16 41.1919 17.52 40.5679 17.808C39.9599 18.08 39.2239 18.216 38.3599 18.216C37.3039 18.216 36.4639 17.976 35.8399 17.496C35.2159 17 34.8959 16.344 34.8799 15.528C34.8799 14.936 35.0239 14.272 35.3119 13.536L36.6319 10.08C36.7119 9.872 36.7519 9.704 36.7519 9.576C36.7519 9.368 36.6799 9.208 36.5359 9.096C36.4079 8.968 36.2479 8.904 36.0559 8.904C35.7839 8.904 35.5039 9.024 35.2159 9.264C34.9279 9.488 34.6879 9.856 34.4959 10.368L32.9119 15.504C32.8479 15.68 32.8159 15.848 32.8159 16.008C32.8159 16.2 32.8559 16.36 32.9359 16.488C33.0159 16.6 33.1279 16.72 33.2719 16.848C33.3839 16.944 33.4639 17.032 33.5119 17.112C33.5599 17.192 33.5679 17.288 33.5359 17.4C33.4719 17.608 33.3199 17.76 33.0799 17.856C32.8399 17.952 32.4639 18 31.9519 18H26.4799C26.0639 18 25.7679 17.936 25.5919 17.808C25.3999 17.664 25.3279 17.48 25.3759 17.256C25.4399 17.064 25.6079 16.896 25.8799 16.752C26.1199 16.624 26.3199 16.472 26.4799 16.296C26.6399 16.12 26.7759 15.84 26.8879 15.456L29.0239 8.52C29.0559 8.44 29.0719 8.328 29.0719 8.184C29.0719 8.008 29.0319 7.872 28.9519 7.776C28.8879 7.68 28.7759 7.56 28.6159 7.416C28.4559 7.288 28.3439 7.176 28.2799 7.08C28.2159 6.984 28.2079 6.856 28.2559 6.696C28.3519 6.328 28.8559 6.008 29.7679 5.736C30.6799 5.448 31.6319 5.304 32.6239 5.304C33.4079 5.304 34.0239 5.52 34.4719 5.952C34.9359 6.384 35.1599 6.976 35.1439 7.728C35.7999 6.816 36.4879 6.184 37.2079 5.832C37.9439 5.48 38.7359 5.304 39.5839 5.304C40.5119 5.304 41.2639 5.576 41.8399 6.12C42.4319 6.648 42.7599 7.344 42.8239 8.208C43.5119 7.12 44.2479 6.368 45.0319 5.952C45.8159 5.52 46.6719 5.304 47.5999 5.304C48.5759 5.304 49.3599 5.6 49.9519 6.192C50.5599 6.784 50.8639 7.552 50.8639 8.496C50.8639 8.992 50.7839 9.48 50.6239 9.96L49.1599 14.688ZM64.0364 5.208C65.2684 5.208 66.2364 5.616 66.9404 6.432C67.6444 7.248 67.9964 8.36 67.9964 9.768C67.9964 10.52 67.8924 11.312 67.6844 12.144C67.2044 14.128 66.3084 15.64 64.9964 16.68C63.6844 17.704 62.1644 18.216 60.4364 18.216C59.3324 18.216 58.3724 17.984 57.5564 17.52L56.7884 20.088C56.7244 20.264 56.6924 20.432 56.6924 20.592C56.6924 20.768 56.7324 20.912 56.8124 21.024C56.8924 21.152 56.9964 21.272 57.1244 21.384C57.2524 21.512 57.3324 21.616 57.3644 21.696C57.4124 21.776 57.4204 21.872 57.3884 21.984C57.3244 22.192 57.1724 22.336 56.9324 22.416C56.6924 22.512 56.3244 22.56 55.8284 22.56H50.3324C49.9164 22.56 49.6204 22.488 49.4444 22.344C49.2524 22.216 49.1964 22.048 49.2764 21.84C49.3084 21.712 49.3644 21.608 49.4444 21.528C49.5244 21.448 49.6364 21.376 49.7804 21.312C50.0204 21.152 50.2124 20.984 50.3564 20.808C50.5004 20.648 50.6284 20.384 50.7404 20.016L54.2444 8.52C54.2924 8.376 54.3164 8.256 54.3164 8.16C54.3164 7.984 54.2764 7.848 54.1964 7.752C54.1164 7.64 53.9964 7.528 53.8364 7.416C53.6764 7.288 53.5644 7.176 53.5004 7.08C53.4364 6.984 53.4284 6.856 53.4764 6.696C53.5724 6.328 54.0764 6.008 54.9884 5.736C55.9004 5.448 56.8524 5.304 57.8444 5.304C58.5484 5.304 59.1244 5.48 59.5724 5.832C60.0364 6.184 60.3004 6.672 60.3644 7.296C61.4524 5.904 62.6764 5.208 64.0364 5.208ZM61.2524 12.336C61.6364 10.912 61.8284 9.928 61.8284 9.384C61.8284 9.048 61.7724 8.832 61.6604 8.736C61.5644 8.624 61.4204 8.568 61.2284 8.568C61.0844 8.568 60.9004 8.64 60.6764 8.784C60.4524 8.912 60.2284 9.136 60.0044 9.456L58.1084 15.744C58.3004 15.936 58.5324 16.032 58.8044 16.032C59.2364 16.032 59.6444 15.792 60.0284 15.312C60.4284 14.816 60.8364 13.824 61.2524 12.336ZM75.7341 0.263999C76.6621 0.263999 77.3421 0.44 77.7741 0.792C78.2221 1.144 78.4461 1.624 78.4461 2.232C78.4461 2.584 78.3901 2.928 78.2781 3.264L74.5101 15.504C74.4621 15.696 74.4381 15.864 74.4381 16.008C74.4381 16.216 74.4781 16.384 74.5581 16.512C74.6381 16.624 74.7501 16.736 74.8941 16.848C75.0061 16.96 75.0861 17.056 75.1341 17.136C75.1821 17.2 75.1901 17.288 75.1581 17.4C75.0781 17.608 74.9181 17.76 74.6781 17.856C74.4381 17.952 74.0701 18 73.5741 18H68.1021C67.6861 18 67.3821 17.936 67.1901 17.808C66.9981 17.664 66.9341 17.48 66.9981 17.256C67.0621 17.064 67.2301 16.896 67.5021 16.752C67.7421 16.624 67.9421 16.472 68.1021 16.296C68.2621 16.12 68.3981 15.84 68.5101 15.456L72.1581 3.48C72.2061 3.336 72.2301 3.216 72.2301 3.12C72.2301 2.944 72.1821 2.8 72.0861 2.688C72.0061 2.576 71.8941 2.464 71.7501 2.352C71.5901 2.224 71.4701 2.112 71.3901 2.016C71.3261 1.92 71.3181 1.792 71.3661 1.632C71.4621 1.264 71.9661 0.943999 72.8781 0.671999C73.7901 0.399999 74.7421 0.263999 75.7341 0.263999ZM85.0032 5.184C87.0352 5.184 88.5072 5.512 89.4192 6.168C90.3312 6.808 90.7872 7.632 90.7872 8.64C90.7872 8.944 90.7552 9.224 90.6912 9.48C90.4512 10.536 89.7792 11.296 88.6752 11.76C87.5872 12.208 86.2992 12.432 84.8112 12.432C84.0592 12.432 83.3552 12.384 82.6992 12.288C82.6832 13.12 82.9072 13.704 83.3712 14.04C83.8352 14.376 84.4832 14.544 85.3152 14.544C85.6992 14.544 86.0672 14.504 86.4192 14.424C86.7712 14.328 87.2192 14.192 87.7632 14.016C88.2112 13.856 88.5152 13.776 88.6752 13.776C88.8512 13.776 88.9392 13.88 88.9392 14.088C88.9552 14.648 88.7472 15.24 88.3152 15.864C87.8832 16.472 87.2432 16.992 86.3952 17.424C85.5472 17.856 84.5232 18.072 83.3232 18.072C81.5472 18.072 80.0912 17.624 78.9552 16.728C77.8192 15.832 77.2512 14.528 77.2512 12.816C77.2512 12.336 77.3152 11.776 77.4432 11.136C77.8432 9.168 78.7152 7.688 80.0592 6.696C81.4192 5.688 83.0672 5.184 85.0032 5.184ZM82.8672 10.848C82.9312 10.864 83.0192 10.872 83.1312 10.872C83.8032 10.872 84.3152 10.56 84.6672 9.936C85.0192 9.312 85.1872 8.616 85.1712 7.848C85.1552 7.4 85.0272 7.176 84.7872 7.176C84.6112 7.176 84.4032 7.32 84.1632 7.608C83.9232 7.88 83.6832 8.296 83.4432 8.856C83.2192 9.416 83.0272 10.08 82.8672 10.848ZM105.758 2.016C106.094 2.016 106.35 2.072 106.526 2.184C106.718 2.28 106.814 2.424 106.814 2.616C106.814 2.696 106.79 2.8 106.742 2.928C106.694 3.04 106.622 3.144 106.526 3.24C106.446 3.32 106.366 3.384 106.286 3.432C106.222 3.464 106.174 3.496 106.142 3.528C105.886 3.672 105.678 3.832 105.518 4.008C105.358 4.184 105.222 4.456 105.11 4.824L102.206 15.168C102.142 15.376 102.11 15.576 102.11 15.768C102.11 15.96 102.134 16.12 102.182 16.248C102.246 16.376 102.334 16.512 102.446 16.656C102.59 16.864 102.662 17.032 102.662 17.16C102.662 17.192 102.646 17.272 102.614 17.4C102.55 17.624 102.406 17.784 102.182 17.88C101.958 17.96 101.622 18 101.174 18H95.5336C95.1976 18 94.9416 17.944 94.7656 17.832C94.5736 17.72 94.4776 17.568 94.4776 17.376C94.4776 17.28 94.5016 17.176 94.5496 17.064C94.6136 16.888 94.7176 16.752 94.8616 16.656C95.0056 16.56 95.0936 16.504 95.1256 16.488C95.3816 16.328 95.5896 16.168 95.7496 16.008C95.9096 15.832 96.0456 15.552 96.1576 15.168L99.0856 4.824C99.1496 4.616 99.1816 4.416 99.1816 4.224C99.1816 4.048 99.1496 3.904 99.0856 3.792C99.0376 3.664 98.9656 3.52 98.8696 3.36C98.7256 3.152 98.6536 2.984 98.6536 2.856C98.6536 2.808 98.6696 2.72 98.7016 2.592C98.7656 2.384 98.9016 2.24 99.1096 2.16C99.3336 2.064 99.6696 2.016 100.118 2.016H105.758ZM119.661 14.688C119.629 14.752 119.613 14.848 119.613 14.976C119.613 15.088 119.637 15.176 119.685 15.24C119.749 15.304 119.829 15.336 119.925 15.336C120.117 15.336 120.277 15.256 120.405 15.096C120.549 14.92 120.645 14.832 120.693 14.832C120.773 14.832 120.837 14.888 120.885 15C120.933 15.096 120.957 15.216 120.957 15.36C120.973 15.824 120.821 16.28 120.501 16.728C120.181 17.16 119.709 17.52 119.085 17.808C118.477 18.08 117.741 18.216 116.877 18.216C115.821 18.216 114.981 17.976 114.357 17.496C113.733 17 113.413 16.344 113.397 15.528C113.397 14.936 113.541 14.272 113.829 13.536L115.149 10.08C115.229 9.872 115.269 9.704 115.269 9.576C115.269 9.368 115.197 9.208 115.053 9.096C114.925 8.968 114.765 8.904 114.573 8.904C114.221 8.904 113.885 9.072 113.565 9.408C113.245 9.728 113.013 10.128 112.869 10.608L111.381 15.504C111.317 15.68 111.285 15.848 111.285 16.008C111.285 16.2 111.325 16.36 111.405 16.488C111.485 16.6 111.597 16.72 111.741 16.848C111.853 16.944 111.933 17.032 111.981 17.112C112.029 17.192 112.037 17.288 112.005 17.4C111.941 17.608 111.789 17.76 111.549 17.856C111.309 17.952 110.933 18 110.421 18H104.949C104.533 18 104.237 17.936 104.061 17.808C103.869 17.664 103.797 17.48 103.845 17.256C103.909 17.064 104.077 16.896 104.349 16.752C104.589 16.624 104.789 16.472 104.949 16.296C105.109 16.12 105.245 15.84 105.357 15.456L107.493 8.52C107.525 8.44 107.541 8.328 107.541 8.184C107.541 8.008 107.501 7.872 107.421 7.776C107.357 7.68 107.245 7.56 107.085 7.416C106.925 7.288 106.813 7.176 106.749 7.08C106.685 6.984 106.677 6.856 106.725 6.696C106.821 6.328 107.325 6.008 108.237 5.736C109.149 5.448 110.101 5.304 111.093 5.304C111.893 5.304 112.525 5.528 112.989 5.976C113.453 6.408 113.661 7.016 113.613 7.8C114.269 6.856 114.965 6.208 115.701 5.856C116.437 5.488 117.237 5.304 118.101 5.304C119.077 5.304 119.861 5.6 120.453 6.192C121.061 6.784 121.365 7.552 121.365 8.496C121.365 8.992 121.285 9.48 121.125 9.96L119.661 14.688ZM133.696 5.304C134.544 5.304 135.248 5.608 135.808 6.216C136.368 6.824 136.648 7.656 136.648 8.712C136.648 10.136 136.152 11.592 135.16 13.08C134.168 14.568 132.912 15.8 131.392 16.776C129.872 17.736 128.392 18.216 126.952 18.216C125.576 18.216 124.456 17.936 123.592 17.376C122.744 16.816 122.32 16.016 122.32 14.976C122.32 14.592 122.392 14.16 122.536 13.68L124.048 8.52C124.08 8.392 124.096 8.296 124.096 8.232C124.096 8.072 124.056 7.936 123.976 7.824C123.896 7.712 123.784 7.592 123.64 7.464C123.4 7.256 123.28 7.072 123.28 6.912C123.264 6.688 123.4 6.448 123.688 6.192C123.976 5.936 124.376 5.728 124.888 5.568C125.416 5.392 126.008 5.304 126.664 5.304C127.736 5.304 128.568 5.568 129.16 6.096C129.768 6.608 130.072 7.28 130.072 8.112C130.072 8.48 130.008 8.88 129.88 9.312L128.32 14.448C128.272 14.592 128.248 14.712 128.248 14.808C128.248 15.016 128.32 15.176 128.464 15.288C128.608 15.4 128.808 15.456 129.064 15.456C129.416 15.456 129.824 15.304 130.288 15C130.768 14.68 131.24 14.232 131.704 13.656C132.168 13.064 132.544 12.368 132.832 11.568C132.192 11.008 131.736 10.456 131.464 9.912C131.208 9.368 131.08 8.808 131.08 8.232C131.08 7.416 131.304 6.728 131.752 6.168C132.2 5.592 132.848 5.304 133.696 5.304ZM144.488 5.184C146.52 5.184 147.992 5.512 148.904 6.168C149.816 6.808 150.272 7.632 150.272 8.64C150.272 8.944 150.24 9.224 150.176 9.48C149.936 10.536 149.264 11.296 148.16 11.76C147.072 12.208 145.784 12.432 144.296 12.432C143.544 12.432 142.84 12.384 142.184 12.288C142.168 13.12 142.392 13.704 142.856 14.04C143.32 14.376 143.968 14.544 144.8 14.544C145.184 14.544 145.552 14.504 145.904 14.424C146.256 14.328 146.704 14.192 147.248 14.016C147.696 13.856 148 13.776 148.16 13.776C148.336 13.776 148.424 13.88 148.424 14.088C148.44 14.648 148.232 15.24 147.8 15.864C147.368 16.472 146.728 16.992 145.88 17.424C145.032 17.856 144.008 18.072 142.808 18.072C141.032 18.072 139.576 17.624 138.44 16.728C137.304 15.832 136.736 14.528 136.736 12.816C136.736 12.336 136.8 11.776 136.928 11.136C137.328 9.168 138.2 7.688 139.544 6.696C140.904 5.688 142.552 5.184 144.488 5.184ZM142.352 10.848C142.416 10.864 142.504 10.872 142.616 10.872C143.288 10.872 143.8 10.56 144.152 9.936C144.504 9.312 144.672 8.616 144.656 7.848C144.64 7.4 144.512 7.176 144.272 7.176C144.096 7.176 143.888 7.32 143.648 7.608C143.408 7.88 143.168 8.296 142.928 8.856C142.704 9.416 142.512 10.08 142.352 10.848ZM157.677 5.088C159.005 5.088 160.149 5.208 161.109 5.448C162.085 5.688 162.829 6.024 163.341 6.456C163.869 6.888 164.133 7.376 164.133 7.92C164.133 8.48 163.909 8.936 163.461 9.288C163.029 9.64 162.421 9.816 161.637 9.816C160.837 9.816 160.157 9.616 159.597 9.216C159.053 8.816 158.781 8.312 158.781 7.704C158.781 7.496 158.813 7.296 158.877 7.104C158.589 7.024 158.333 6.984 158.109 6.984C157.709 6.984 157.373 7.08 157.101 7.272C156.845 7.464 156.725 7.736 156.741 8.088C156.741 8.504 156.949 8.856 157.365 9.144C157.781 9.432 158.453 9.792 159.381 10.224C160.181 10.576 160.837 10.904 161.349 11.208C161.877 11.496 162.317 11.864 162.669 12.312C163.037 12.76 163.221 13.288 163.221 13.896C163.221 14.024 163.189 14.264 163.125 14.616C162.869 15.688 162.157 16.536 160.989 17.16C159.821 17.784 158.285 18.096 156.381 18.096C154.237 18.096 152.533 17.808 151.269 17.232C150.021 16.656 149.397 15.864 149.397 14.856C149.397 14.168 149.605 13.648 150.021 13.296C150.437 12.944 150.989 12.768 151.677 12.768C152.477 12.768 153.157 13.016 153.717 13.512C154.293 14.008 154.581 14.64 154.581 15.408C154.581 15.616 154.557 15.832 154.509 16.056C154.893 16.152 155.261 16.2 155.613 16.2C156.029 16.2 156.373 16.088 156.645 15.864C156.917 15.64 157.053 15.328 157.053 14.928C157.037 14.56 156.853 14.248 156.501 13.992C156.149 13.72 155.589 13.4 154.821 13.032C154.101 12.696 153.509 12.384 153.045 12.096C152.581 11.792 152.181 11.416 151.845 10.968C151.525 10.52 151.365 9.992 151.365 9.384C151.365 8.072 151.909 7.032 152.997 6.264C154.101 5.48 155.661 5.088 157.677 5.088ZM174.736 5.616C175.04 5.616 175.272 5.68 175.432 5.808C175.608 5.936 175.696 6.112 175.696 6.336C175.696 6.4 175.68 6.512 175.648 6.672C175.44 7.376 174.96 7.728 174.208 7.728H172.816L171.016 13.656C170.936 13.896 170.896 14.144 170.896 14.4C170.896 14.688 170.976 14.888 171.136 15C171.296 15.112 171.52 15.168 171.808 15.168C172.064 15.168 172.384 15.136 172.768 15.072C172.96 15.024 173.128 15 173.272 15C173.384 15 173.464 15.04 173.512 15.12C173.576 15.184 173.608 15.272 173.608 15.384C173.624 15.704 173.384 16.096 172.888 16.56C172.408 17.008 171.752 17.4 170.92 17.736C170.088 18.056 169.168 18.216 168.16 18.216C167.072 18.216 166.2 17.968 165.544 17.472C164.888 16.976 164.56 16.296 164.56 15.432C164.56 15.032 164.624 14.648 164.752 14.28L166.288 9.528C166.368 9.256 166.408 9.04 166.408 8.88C166.408 8.56 166.328 8.288 166.168 8.064C166.024 7.84 165.816 7.608 165.544 7.368C165.304 7.144 165.136 6.96 165.04 6.816C164.944 6.656 164.92 6.472 164.968 6.264C165.032 6.056 165.168 5.896 165.376 5.784C165.584 5.672 165.912 5.616 166.36 5.616H167.704L169.216 4.104C169.744 3.576 170.224 3.208 170.656 3C171.104 2.792 171.68 2.688 172.384 2.688C173.392 2.688 173.896 3.072 173.896 3.84C173.896 4.08 173.864 4.304 173.8 4.512L173.464 5.616H174.736ZM177.176 13.152C177.816 13.152 178.352 13.368 178.784 13.8C179.232 14.232 179.456 14.76 179.456 15.384C179.456 15.816 179.336 16.24 179.096 16.656C178.872 17.072 178.552 17.416 178.136 17.688C177.736 17.944 177.28 18.072 176.768 18.072C176.144 18.072 175.616 17.856 175.184 17.424C174.752 16.992 174.528 16.464 174.512 15.84C174.512 15.408 174.624 14.984 174.848 14.568C175.072 14.152 175.384 13.816 175.784 13.56C176.2 13.288 176.664 13.152 177.176 13.152Z" fill="#AED8FF"/>
</svg>
